HIERARCHY
ROOT Hips
{
 OFFSET 0.000000 0.000000 0.000000
 CHANNELS 6 Xposition Yposition Zposition Yrotation Xrotation Zrotation
 JOINT Chest
 {
  OFFSET 0.000000 9.585900 0.002600
  CHANNELS 3 Yrotation Xrotation Zrotation
  JOINT Chest2
  {
   OFFSET 0.000000 9.601200 -0.005300
   CHANNELS 3 Yrotation Xrotation Zrotation
   JOINT Chest3
   {
    OFFSET 0.000000 9.561800 0.000000
    CHANNELS 3 Yrotation Xrotation Zrotation
    JOINT Chest4
    {
     OFFSET 0.000000 9.552100 0.000000
     CHANNELS 3 Yrotation Xrotation Zrotation
     JOINT Neck
     {
      OFFSET 0.000000 14.453000 0.000000
      CHANNELS 3 Yrotation Xrotation Zrotation
      JOINT Head
      {
       OFFSET 0.000000 8.936500 -0.011300
       CHANNELS 3 Yrotation Xrotation Zrotation
       End Site
       {
        OFFSET 0.000000 17.073600 -0.006000
       }
      }
     }
     JOINT RightCollar
     {
      OFFSET -2.921100 9.558500 0.000000
      CHANNELS 3 Yrotation Xrotation Zrotation
      JOINT RightShoulder
      {
       OFFSET -13.519700 0.000000 0.000000
       CHANNELS 3 Yrotation Xrotation Zrotation
       JOINT RightElbow
       {
        OFFSET 0.000000 -29.696600 0.000000
        CHANNELS 3 Yrotation Xrotation Zrotation
        JOINT RightWrist
        {
         OFFSET 0.000000 -24.004700 0.000000
         CHANNELS 3 Yrotation Xrotation Zrotation
         End Site
         {
          OFFSET 0.000000 -17.728500 0.000000
         }
        }
       }
      }
     }
     JOINT LeftCollar
     {
      OFFSET 2.921100 9.558500 0.000000
      CHANNELS 3 Yrotation Xrotation Zrotation
      JOINT LeftShoulder
      {
       OFFSET 13.519700 0.000000 0.000000
       CHANNELS 3 Yrotation Xrotation Zrotation
       JOINT LeftElbow
       {
        OFFSET 0.000000 -29.696600 0.000000
        CHANNELS 3 Yrotation Xrotation Zrotation
        JOINT LeftWrist
        {
         OFFSET 0.000000 -24.004700 0.000000
         CHANNELS 3 Yrotation Xrotation Zrotation
         End Site
         {
          OFFSET 0.000000 -17.728500 0.000000
         }
        }
       }
      }
     }
    }
   }
  }
 }
 JOINT RightHip
 {
  OFFSET -7.771700 -0.012900 -0.001300
  CHANNELS 3 Yrotation Xrotation Zrotation
  JOINT RightKnee
  {
   OFFSET 0.000000 -40.869800 0.001200
   CHANNELS 3 Yrotation Xrotation Zrotation
   JOINT RightAnkle
   {
    OFFSET 0.000000 -39.717900 0.002100
    CHANNELS 3 Yrotation Xrotation Zrotation
    JOINT RightToe
    {
     OFFSET 0.000000 -4.965400 11.033500
     CHANNELS 3 Yrotation Xrotation Zrotation
     End Site
     {
      OFFSET 0.000000 -1.423100 5.872300
     }
    }
   }
  }
 }
 JOINT LeftHip
 {
  OFFSET 7.771700 -0.012900 -0.001300
  CHANNELS 3 Yrotation Xrotation Zrotation
  JOINT LeftKnee
  {
   OFFSET 0.000000 -40.869800 0.001200
   CHANNELS 3 Yrotation Xrotation Zrotation
   JOINT LeftAnkle
   {
    OFFSET 0.000000 -39.717900 0.002100
    CHANNELS 3 Yrotation Xrotation Zrotation
    JOINT LeftToe
    {
     OFFSET 0.000000 -4.965400 11.033500
     CHANNELS 3 Yrotation Xrotation Zrotation
     End Site
     {
      OFFSET 0.000000 -1.423100 5.872300
     }
    }
   }
  }
 }
}
MOTION
Frames: 12
Frame Time: 0.008333
0.000000 85.388000 0.000000 0.000000 -5.767877 0.000000 0.000000 11.653817 0.000000 0.000000 -5.885947 0.000000 0.000000 -0.000000 0.000000 0.000000 -0.000000 0.000000 0.000000 12.528835 0.000000 0.000000 0.711642 0.000000 0.000000 -0.000000 0.000000 0.000000 0.000000 -90.000000 0.000000 -2.309062 0.000000 0.000000 2.309062 0.000000 0.000000 -0.000000 0.000000 0.000000 -0.000000 90.000000 0.000000 -2.309062 0.000000 0.000000 2.309062 0.000000 0.000000 8.520406 0.000000 0.000000 1.905762 0.000000 -0.000000 -4.658285 0.000000 0.000000 -0.000000 0.000000 0.000000 8.520406 0.000000 0.000000 1.905762 0.000000 -0.000000 -4.658285 0.000000 0.000000 -0.000000 0.000000
-86.887745 46.903762 -17.770251 175.771668 -29.945434 -4.933301 0.512679 20.091539 2.301436 0.061884 2.618434 0.328858 0.072636 4.213988 0.539932 0.575197 17.400920 2.323707 -4.659570 18.163142 0.342520 -8.674920 -1.912579 2.140907 5.227011 0.672712 -2.431352 26.230469 -40.412654 -33.754724 61.445219 -43.899138 -20.535018 13.967426 13.788352 -4.786230 -10.235490 -2.065470 1.116593 -22.525741 -40.412458 38.792250 -70.398382 -42.137788 33.547631 -16.715340 20.380835 -4.178907 -5.800298 -56.249765 -3.899680 -147.681729 78.402458 -139.168238 -10.314694 -13.586865 -5.236435 -0.277103 -0.333235 -0.052214 -5.603211 -58.533102 14.787035 -121.401546 82.707269 -124.654121 8.063399 -7.641973 3.738957 0.467164 0.340804 0.158402
-86.885187 46.911155 -17.781868 175.766786 -29.907905 -4.934116 0.578794 20.164850 2.326055 0.056239 2.595970 0.330616 0.081553 4.215524 0.542682 0.614284 17.402010 2.339273 -4.468844 18.038800 0.360981 -8.336337 -2.152880 2.121641 5.291627 0.583955 -2.444148 26.351933 -40.606671 -33.746280 61.062731 -43.317391 -20.314824 13.812646 13.936409 -5.243493 -10.283076 -2.102380 1.138022 -22.364953 -40.626052 38.530505 -70.358742 -41.878175 33.649950 -16.650381 20.548293 -3.733924 -5.680710 -56.288564 -3.907218 -147.443468 78.352234 -138.952349 -10.332223 -13.554822 -5.138576 -0.292637 -0.351671 -0.064179 -5.707588 -58.549291 14.806744 -121.730439 82.756256 -124.957799 8.090140 -7.658801 3.669933 0.466001 0.338173 0.157150
-86.878314 46.919513 -17.793983 175.758681 -29.859662 -4.955187 0.651784 20.222072 2.371875 0.050635 2.573714 0.331991 0.064174 4.173739 0.545500 0.680586 17.444134 2.354057 -4.295611 17.920928 0.379332 -8.029242 -2.379987 2.106916 5.350263 0.502442 -2.452152 26.452705 -40.779045 -33.740340 60.723144 -42.779711 -20.153806 13.668550 14.053461 -5.691967 -10.345785 -2.154630 1.161238 -22.164878 -40.818166 38.254585 -70.284288 -41.671357 33.737432 -16.563021 20.701962 -3.277062 -5.595404 -56.335024 -3.870712 -147.183883 78.299952 -138.715866 -10.337175 -13.512808 -5.040932 -0.274054 -0.374299 -0.083120 -5.797672 -58.583219 14.859936 -121.964258 82.774800 -125.144357 8.057951 -7.669474 3.615298 0.495101 0.329883 0.162102
-86.874926 46.926901 -17.805087 175.743956 -29.789984 -4.948710 0.701407 20.234509 2.383362 0.056220 2.574227 0.333669 0.051927 4.131030 0.548936 0.741242 17.487083 2.368751 -4.135559 17.810883 0.399117 -7.746277 -2.591644 2.098170 5.406648 0.421649 -2.456407 26.516270 -40.933933 -33.729159 60.417590 -42.296242 -20.033181 13.536674 14.129773 -6.130020 -10.399324 -2.201125 1.182237 -21.956089 -41.014920 37.988398 -70.153239 -41.515220 33.790190 -16.450362 20.833997 -2.812141 -5.473390 -56.405412 -3.873503 -146.930910 78.248577 -138.482617 -10.362597 -13.490499 -4.945535 -0.266268 -0.374521 -0.087395 -5.917581 -58.628383 14.893974 -122.274702 82.821856 -125.439507 8.104347 -7.689538 3.552566 0.461722 0.333110 0.144810
-86.874820 46.934086 -17.816429 175.743915 -29.711528 -4.926270 0.726102 20.241774 2.367981 0.061689 2.575301 0.335435 0.097138 4.195961 0.551897 0.745974 17.424303 2.387050 -3.987650 17.707310 0.421149 -7.485870 -2.790260 2.096627 5.457685 0.333624 -2.458632 26.534569 -41.074372 -33.703060 60.120698 -41.872264 -19.927730 13.415970 14.162674 -6.555321 -10.445074 -2.251363 1.204482 -21.731861 -41.212023 37.724578 -69.963088 -41.404601 33.807147 -16.315791 20.942139 -2.348306 -5.331042 -56.486413 -3.918479 -146.701964 78.198118 -138.268319 -10.419333 -13.469646 -4.850768 -0.232306 -0.372833 -0.090022 -6.014880 -58.683112 14.895596 -122.508084 82.870273 -125.688862 8.182424 -7.697122 3.535077 0.417591 0.324729 0.116984
-86.864879 46.940726 -17.824023 175.727148 -29.614273 -4.953217 0.783603 20.229889 2.413642 0.067324 2.577289 0.337138 0.118350 4.221424 0.554319 0.774948 17.405211 2.404094 -3.852218 17.608755 0.445698 -7.248749 -2.978641 2.103122 5.505709 0.236638 -2.459733 26.497183 -41.204978 -33.655478 59.813750 -41.510883 -19.818860 13.307288 14.156553 -6.962443 -10.506182 -2.328115 1.232238 -21.464401 -41.389332 37.445202 -69.714908 -41.333208 33.787042 -16.164322 21.031516 -1.909548 -5.269523 -56.582688 -3.856889 -146.481854 78.151350 -138.062342 -10.413413 -13.424780 -4.777340 -0.257254 -0.390794 -0.086093 -6.176204 -58.758961 14.996347 -122.749822 82.893357 -125.893887 8.213065 -7.726173 3.454512 0.430307 0.338472 0.120488
-86.853614 46.949998 -17.835639 175.687174 -29.548124 -4.972822 0.845741 20.203907 2.459422 0.079591 2.601287 0.337531 0.137987 4.246675 0.556080 0.815807 17.410421 2.418879 -3.728579 17.514861 0.473675 -7.034211 -3.157554 2.119250 5.552207 0.135101 -2.458941 26.397346 -41.330650 -33.585525 59.480420 -41.219363 -19.689456 13.219123 14.122652 -7.339188 -10.568533 -2.407234 1.263015 -21.178893 -41.563585 37.161498 -69.403208 -41.299927 33.723885 -16.009626 21.106995 -1.528159 -5.194174 -56.646613 -3.789859 -146.267374 78.106990 -137.860470 -10.431603 -13.408331 -4.706631 -0.264000 -0.390711 -0.075325 -6.318699 -58.802722 15.099665 -122.920469 82.906966 -126.029629 8.303524 -7.723529 3.380340 0.384065 0.312841 0.123985
-86.847384 46.958661 -17.847094 175.678139 -29.476891 -4.976418 0.899950 20.234400 2.479596 0.046715 2.519866 0.341529 0.152893 4.270043 0.556408 0.836250 17.413212 2.426085 -3.579674 17.472235 0.495815 -6.843222 -3.326750 2.147572 5.632048 0.081783 -2.461052 26.236880 -41.455088 -33.490441 59.111693 -40.998747 -19.526922 13.147789 14.075291 -7.674011 -10.577336 -2.426654 1.268447 -20.906604 -41.737158 36.896234 -69.021744 -41.310191 33.619014 -15.878589 21.176330 -1.233081 -5.099951 -56.716018 -3.780776 -146.078697 78.063655 -137.681374 -10.455121 -13.379135 -4.643440 -0.249337 -0.395988 -0.064311 -6.444961 -58.849742 15.153809 -123.009782 82.918242 -126.102867 8.371303 -7.733050 3.308151 0.365504 0.310323 0.122829
-86.842165 46.967325 -17.858532 175.668474 -29.408156 -4.973190 0.952339 20.260792 2.492149 0.074745 2.565160 0.342439 0.144349 4.232150 0.561823 0.822474 17.354403 2.436468 -3.443570 17.428640 0.523863 -6.675439 -3.488165 2.189597 5.704074 0.025075 -2.466685 26.017872 -41.578756 -33.366869 58.722442 -40.842817 -19.337979 13.076401 14.027506 -7.966907 -10.575002 -2.434376 1.261406 -20.658533 -41.902994 36.659288 -68.578829 -41.360885 33.484284 -15.788472 21.250436 -1.037328 -4.992434 -56.784714 -3.785600 -145.908987 78.021264 -137.518919 -10.485224 -13.352521 -4.586408 -0.236854 -0.397780 -0.048606 -6.566496 -58.892386 15.203474 -123.075162 82.928372 -126.155519 8.413247 -7.742652 3.248297 0.361820 0.309603 0.111822
-86.836703 46.976440 -17.870598 175.653160 -29.348193 -4.968721 0.979975 20.236589 2.498644 0.103590 2.621345 0.340536 0.155777 4.236480 0.564861 0.859738 17.342448 2.454842 -3.363528 17.339933 0.566484 -6.527148 -3.645294 2.244752 5.727319 -0.078598 -2.472039 25.749281 -41.697672 -33.221784 58.340586 -40.744373 -19.146080 12.997320 13.993582 -8.226613 -10.645575 -2.507977 1.281916 -20.369859 -42.032496 36.405017 -68.099549 -41.435312 33.334508 -15.739179 21.334477 -0.930575 -4.909544 -56.845087 -3.779527 -145.787144 77.989624 -137.415890 -10.497830 -13.323312 -4.532719 -0.235138 -0.386244 -0.054665 -6.688177 -58.925135 15.252694 -123.185811 82.946874 -126.262851 8.505247 -7.755617 3.189738 0.363146 0.303795 0.114740
-86.831943 46.985240 -17.882382 175.640391 -29.289496 -4.962723 1.003402 20.213284 2.501445 0.117080 2.652087 0.338253 0.163540 4.239900 0.566653 0.953506 17.409686 2.471150 -3.331803 17.192517 0.630274 -6.395473 -3.800642 2.308945 5.708251 -0.239512 -2.468796 25.455234 -41.808253 -33.072274 57.995037 -40.688194 -18.977191 12.910791 13.979795 -8.458785 -10.758651 -2.640379 1.332264 -20.069855 -42.146164 36.148141 -67.620163 -41.521153 33.183799 -15.719449 21.429273 -0.891161 -4.806918 -56.905294 -3.783992 -145.609050 77.947619 -137.219493 -10.582280 -13.301997 -4.528483 -0.179255 -0.392445 -0.013559 -6.812164 -58.956558 15.310994 -123.314009 82.975895 -126.413701 8.585924 -7.760276 3.169201 0.310987 0.295954 0.083893
